<?xml version="1.0" encoding="utf-8"?>
<!-- Generator: Adobe Illustrator 16.0.0, SVG Export Plug-In . SVG Version: 6.00 Build 0)  -->
<!DOCTYPE svg PUBLIC "-//W3C//DTD SVG 1.1//EN" "http://www.w3.org/Graphics/SVG/1.1/DTD/svg11.dtd">
<svg version="1.1" id="Ebene_2" xmlns="http://www.w3.org/2000/svg" xmlns:xlink="http://www.w3.org/1999/xlink" x="0px" y="0px"
	 width="171px" height="161px" viewBox="0 0 171 161" enable-background="new 0 0 171 161" xml:space="preserve">
<path fill-rule="evenodd" clip-rule="evenodd" d="M58.868,120.183c-2.139-1.671-4.324-3.377-6.53-5.1
	c-3.599,2.705-7.211,5.221-10.59,8.019c-3.144,2.604-7.341,2.183-9.529-1.306c-0.423-0.675-0.988-1.26-1.439-1.918
	c-1.967-2.871-1.573-5.914,1.195-8.056c3.416-2.642,6.926-5.161,10.395-7.733c0.253-0.188,0.499-0.385,0.785-0.605
	c-1.392-3.331-2.767-6.622-4.205-10.063c-3.636,0.438-7.337,0.89-11.04,1.329c-1.19,0.142-2.382,0.315-3.578,0.364
	c-3.436,0.141-5.596-1.602-6.201-5.019c-0.208-1.177-0.31-2.383-0.346-3.578c-0.1-3.32,1.683-5.492,4.98-5.941
	c4.669-0.637,9.353-1.172,14.396-1.796c0.295-2.575,0.606-5.292,0.906-7.906c-4.442-1.865-8.708-3.642-12.961-5.447
	c-4.318-1.833-5.415-4.501-3.654-8.801c0.212-0.518,0.431-1.033,0.656-1.546c1.629-3.713,4.449-4.958,8.154-3.459
	c3.928,1.589,7.808,3.297,11.708,4.952c0.356,0.151,0.716,0.293,1.046,0.427c2.411-3.288,4.761-6.493,7.102-9.687
	c-3.805-3.676-6.708-8.101-9.852-12.317c-1.768-2.371-1.22-5.368,1.017-7.344c0.896-0.792,1.874-1.502,2.861-2.181
	c2.917-2.006,6.083-1.59,8.289,1.208c3.058,3.881,6.016,7.843,9.045,11.809c3.182-1.348,6.548-2.773,10.136-4.292
	c-0.186-1.609-0.365-3.335-0.589-5.055c-0.361-2.774-0.774-5.542-1.123-8.319c-0.433-3.451,1.344-5.947,4.746-6.61
	c1.33-0.259,2.692-0.432,4.045-0.477c3.246-0.108,5.49,1.768,5.96,5.011c0.551,3.797,0.997,7.61,1.498,11.415
	c0.092,0.698,0.225,1.39,0.348,2.141c3.13,0.351,6.128,0.687,9.078,1.018c1.833-4.405,3.668-8.8,5.489-13.202
	c0.595-1.438,1.387-2.695,2.804-3.47c3.244-1.772,10.031,0.731,11.305,4.22c0.603,1.652,0.39,3.294-0.303,4.905
	c-1.798,4.181-3.565,8.374-5.38,12.643c3.227,2.391,6.538,4.844,9.815,7.272c3.697-2.783,7.473-5.578,11.189-8.446
	c1.715-1.323,3.572-1.763,5.635-1.251c3.004,0.747,6.483,5.859,6.13,8.92c-0.208,1.804-1.241,3.062-2.646,4.103
	c-3.721,2.755-7.43,5.528-11.249,8.372c1.358,3.311,2.741,6.68,4.208,10.256c0.805-0.07,1.661-0.122,2.512-0.222
	c3.494-0.409,6.979-0.911,10.481-1.232c4.594-0.421,6.709,1.345,7.293,5.872c0.092,0.714,0.242,1.42,0.314,2.136
	c0.343,3.391-1.591,5.964-4.983,6.447c-3.877,0.552-7.773,0.979-11.662,1.458c-0.705,0.088-1.412,0.165-2.214,0.258
	c-0.563,3.601-1.112,7.123-1.683,10.776c0.568,0.282,1.109,0.585,1.678,0.826c3.534,1.496,7.088,2.946,10.608,4.475
	c3.753,1.63,4.857,4.392,3.351,8.178c-0.266,0.669-0.537,1.335-0.829,1.993c-1.646,3.707-4.463,4.933-8.181,3.418
	c-4.072-1.657-8.096-3.436-12.141-5.159c-0.146-0.063-0.299-0.112-0.576-0.214c-2.15,2.588-4.332,5.215-6.588,7.93
	c2.434,3.166,4.908,6.377,7.371,9.596c0.632,0.826,1.307,1.631,1.832,2.522c1.367,2.323,0.943,5.203-1.058,7.005
	c-1.007,0.906-2.11,1.721-3.243,2.469c-2.684,1.775-5.731,1.436-7.743-1.061c-3.106-3.854-6.055-7.836-9.183-11.909
	c-3.212,1.185-6.631,2.445-10.3,3.798c0.19,1.709,0.372,3.512,0.599,5.309c0.329,2.618,0.711,5.229,1.033,7.848
	c0.447,3.629-1.579,6.212-5.224,6.697c-1.109,0.147-2.218,0.336-3.333,0.402c-3.169,0.189-5.631-1.709-6.115-4.856
	c-0.644-4.188-1.149-8.396-1.718-12.595c-0.063-0.467-0.148-0.93-0.243-1.516c-3.402-0.594-6.76-1.182-10.269-1.795
	c-1.313,3.072-2.626,6.146-3.94,9.221c-0.566,1.322-1.07,2.678-1.718,3.961c-1.339,2.652-4.024,3.773-6.867,2.859
	c-1.213-0.391-2.387-0.923-3.543-1.465c-3.183-1.494-4.424-4.299-3.109-7.529c1.747-4.292,3.684-8.507,5.535-12.757
	C58.785,120.642,58.799,120.478,58.868,120.183z"/>
</svg>
